REM DIRINDEX 1\2\4,1\2\5,1\3\6,1\3\7,1\3\8
REM DIRNAME cjc094,folder01,folder02,folder03,folder04,folder05,folder06,folder07
TITLE ""
FILE "LV3_059_WORDS.mp3" MP3
  TRACK 01 AUDIO
    TITLE "0:"
    INDEX 01 00:00:00
  TRACK 02 AUDIO
    TITLE "6:cjc094_2093"
    INDEX 01 00:00:03
  TRACK 03 AUDIO
    TITLE "0:"
    INDEX 01 00:02:32
  TRACK 04 AUDIO
    TITLE "7:cjc094_2094"
    INDEX 01 00:03:10
  TRACK 05 AUDIO
    TITLE "0:"
    INDEX 01 00:04:13
  TRACK 06 AUDIO
    TITLE "8:cjc094_2095"
    INDEX 01 00:04:31
  TRACK 07 AUDIO
    TITLE "0:"
    INDEX 01 00:05:36
  TRACK 08 AUDIO
    TITLE "7:cjc094_2096"
    INDEX 01 00:06:02
  TRACK 09 AUDIO
    TITLE "0:"
    INDEX 01 00:07:00
  TRACK 10 AUDIO
    TITLE "8:cjc094_2097"
    INDEX 01 00:07:17
  TRACK 11 AUDIO
    TITLE "0:"
    INDEX 01 00:08:05
  TRACK 12 AUDIO
    TITLE "7:cjc094_2098"
    INDEX 01 00:08:50
  TRACK 13 AUDIO
    TITLE "0:"
    INDEX 01 00:09:44
  TRACK 14 AUDIO
    TITLE "8:cjc094_2099"
    INDEX 01 00:09:61
  TRACK 15 AUDIO
    TITLE "0:"
    INDEX 01 00:12:20
  TRACK 16 AUDIO
    TITLE "7:cjc094_2100"
    INDEX 01 00:12:67
  TRACK 17 AUDIO
    TITLE "0:"
    INDEX 01 00:13:59
  TRACK 18 AUDIO
    TITLE "8:cjc094_2101"
    INDEX 01 00:14:02
  TRACK 19 AUDIO
    TITLE "0:"
    INDEX 01 00:15:19
  TRACK 20 AUDIO
    TITLE "7:cjc094_2102"
    INDEX 01 00:15:66
  TRACK 21 AUDIO
    TITLE "0:"
    INDEX 01 00:16:63
  TRACK 22 AUDIO
    TITLE "8:cjc094_2103"
    INDEX 01 00:17:04
  TRACK 23 AUDIO
    TITLE "0:"
    INDEX 01 00:18:56
  TRACK 24 AUDIO
    TITLE "7:cjc094_2104"
    INDEX 01 00:19:30
  TRACK 25 AUDIO
    TITLE "0:"
    INDEX 01 00:20:45
  TRACK 26 AUDIO
    TITLE "8:cjc094_2105"
    INDEX 01 00:20:63
  TRACK 27 AUDIO
    TITLE "0:"
    INDEX 01 00:22:01
  TRACK 28 AUDIO
    TITLE "7:cjc094_2106"
    INDEX 01 00:22:48
  TRACK 29 AUDIO
    TITLE "0:"
    INDEX 01 00:23:51
  TRACK 30 AUDIO
    TITLE "8:cjc094_2107"
    INDEX 01 00:23:69
  TRACK 31 AUDIO
    TITLE "0:"
    INDEX 01 00:25:09
  TRACK 32 AUDIO
    TITLE "7:cjc094_2108"
    INDEX 01 00:25:62
  TRACK 33 AUDIO
    TITLE "0:"
    INDEX 01 00:26:71
  TRACK 34 AUDIO
    TITLE "8:cjc094_2109"
    INDEX 01 00:27:14
  TRACK 35 AUDIO
    TITLE "0:"
    INDEX 01 00:29:19
  TRACK 36 AUDIO
    TITLE "7:cjc094_2110"
    INDEX 01 00:29:62
  TRACK 37 AUDIO
    TITLE "0:"
    INDEX 01 00:30:73
  TRACK 38 AUDIO
    TITLE "8:cjc094_2111"
    INDEX 01 00:31:16
  TRACK 39 AUDIO
    TITLE "0:"
    INDEX 01 00:32:39
  TRACK 40 AUDIO
    TITLE "7:cjc094_2112"
    INDEX 01 00:33:07
  TRACK 41 AUDIO
    TITLE "0:"
    INDEX 01 00:34:14
  TRACK 42 AUDIO
    TITLE "8:cjc094_2113"
    INDEX 01 00:34:30
  TRACK 43 AUDIO
    TITLE "0:"
    INDEX 01 00:36:44
  TRACK 44 AUDIO
    TITLE "7:cjc094_2114"
    INDEX 01 00:37:20
  TRACK 45 AUDIO
    TITLE "0:"
    INDEX 01 00:38:28
  TRACK 46 AUDIO
    TITLE "8:cjc094_2115"
    INDEX 01 00:38:37
  TRACK 47 AUDIO
    TITLE "0:"
    INDEX 01 00:39:70
  TRACK 48 AUDIO
    TITLE "7:cjc094_2116"
    INDEX 01 00:40:40
  TRACK 49 AUDIO
    TITLE "0:"
    INDEX 01 00:41:30
  TRACK 50 AUDIO
    TITLE "8:cjc094_2117"
    INDEX 01 00:41:42
  TRACK 51 AUDIO
    TITLE "0:"
    INDEX 01 00:42:45
  TRACK 52 AUDIO
    TITLE "7:cjc094_2118"
    INDEX 01 00:43:17
  TRACK 53 AUDIO
    TITLE "0:"
    INDEX 01 00:44:12
  TRACK 54 AUDIO
    TITLE "8:cjc094_2119"
    INDEX 01 00:44:24
  TRACK 55 AUDIO
    TITLE "0:"
    INDEX 01 00:46:21
  TRACK 56 AUDIO
    TITLE "7:cjc094_2120"
    INDEX 01 00:46:62
  TRACK 57 AUDIO
    TITLE "0:"
    INDEX 01 00:47:60
  TRACK 58 AUDIO
    TITLE "8:cjc094_2121"
    INDEX 01 00:48:00
  TRACK 59 AUDIO
    TITLE "0:"
    INDEX 01 00:50:52
  TRACK 60 AUDIO
    TITLE "7:cjc094_2122"
    INDEX 01 00:51:20
  TRACK 61 AUDIO
    TITLE "0:"
    INDEX 01 00:52:16
  TRACK 62 AUDIO
    TITLE "8:cjc094_2123"
    INDEX 01 00:52:30
  TRACK 63 AUDIO
    TITLE "0:"
    INDEX 01 00:54:23
